# xmcd CD database file
#
# Track frame offsets:
#	150
#	2735
#	12067
#	26427
#	38597
#	52677
#	61740
#	64192
#	72850
#	80857
#	95442
#	109345
#	114295
#	129662
#	136590
#	145985
#	153590
#	167112
#	171992
#	195735
#	203642
#	223892
#	228500
#	238792
#	254912
#	262980
#	272567
#	280910
#	289385
#	301565
#	317835
#	334692
#	339897
#
# Disc length: 4630 seconds
#
# Revision: 0
# Processed by: cddbd v1.5.2PL0 Copyright (c) Steve Scherf et al.
# Submitted via: CDex 1.81
#
DISCID=dc121421
DTITLE=Semafor - 7.1. Sest zen
DYEAR=1962
DGENRE=Jazz
TTITLE0=Greensleeves (trad.)
TTITLE1=Ticho a klid (S+S) - P. Sedlacek
TTITLE2=Proc se lidi nemaj' radi (S+S) - K. Gott
TTITLE3=Kiki (S+S) - H. Hegerova
TTITLE4=Student s rudyma usima (S+S) - H. Hegerova
TTITLE5=Kapka zarlivosti (S+S) - H. Hegerova
TTITLE6=Greensleeves (trad.)
TTITLE7=Laska se nevyhne krali (S+S) - P. Filipovska
TTITLE8=Bile mne maticka oblekala (S+S) - P. Filipovska
TTITLE9=Anna Von Cleve (J. Slitr) - J. Malknechtova
TTITLE10=Tak uz to casto v zivote chodi (S. Secunda-J. Suchy) - J. Jelinek (Means That You're Grand)
TTITLE11=Spodek, filek, kral a eso (S+S) - J. Malknechtova
TTITLE12=Spodek, filek, kral a eso - twist (S+S) - sbor
TTITLE13=Do vody hozen (S+S) - P. Sedlacek
TTITLE14=Bud mi verna, moje mila (S+S) - P. Sedlacek a J. Jelinek
TTITLE15=Boli me hlava (S+S) - J. Jelinek
TTITLE16=Tu krasu nelze popsat slovy (S+S) - P. Sedlacek, K. Gott a sbor
TTITLE17=Greensleeves (trad.)
TTITLE18=Plna hrst (S+S) - sbor
TTITLE19=Sest zen (S+S) - sbor
TTITLE20=Anna Von Cleve (J. Slitr) - E. Olmerova
TTITLE21=Spodek, filek, kral a eso (S+S) - E. Olmerova
TTITLE22=Warum Leute Scheut Her Liebe
TTITLE23=Sonne Sinkt Betrubt ins Meer
TTITLE24=Kiki
TTITLE25=Ein Kleiner Tropfen Eifersucht
TTITLE26=Weis Zog...
TTITLE27=Duda a basa (S+S) - H. Hegerova, L. Rocakova, N. Urbankova
TTITLE28=Hochzeit
TTITLE29=Ein Rosa Band
TTITLE30=Das Altern
TTITLE31=Warum Leute...
TTITLE32=Buben, Damen
EXTD=YEAR: 1962
EXTT0=
EXTT1=
EXTT2=
EXTT3=
EXTT4=
EXTT5=
EXTT6=
EXTT7=
EXTT8=
EXTT9=
EXTT10=
EXTT11=
EXTT12=
EXTT13=
EXTT14=
EXTT15=
EXTT16=
EXTT17=
EXTT18=
EXTT19=
EXTT20=
EXTT21=
EXTT22=
EXTT23=
EXTT24=
EXTT25=
EXTT26=
EXTT27=
EXTT28=
EXTT29=
EXTT30=
EXTT31=
EXTT32=
PLAYORDER=
